<svg xmlns="http://www.w3.org/2000/svg" viewBox="0 0 64 64"><g id="Outline"><path d="M59,16H58v-.973H56V26a1,1,0,0,1-1,1H53a1,1,0,0,1-1-1V12a1,1,0,0,1,1-1h2a1,1,0,0,1,1,1v1h2V12a3,3,0,0,0-3-3H53a2.966,2.966,0,0,0-1,.184V9a3,3,0,0,0-3-3H47a3,3,0,0,0-3,3v6H42a3,3,0,0,0-5-2.234,2.994,2.994,0,0,0-4,0,2.994,2.994,0,0,0-4,0A3,3,0,0,0,24,15H20V9a3,3,0,0,0-3-3H15a3,3,0,0,0-3,3v.184A2.966,2.966,0,0,0,11,9H9a3,3,0,0,0-3,3v4H5a3,3,0,0,0,0,6H6v.978H8V12a1,1,0,0,1,1-1h2a1,1,0,0,1,1,1V26a1,1,0,0,1-1,1H9a1,1,0,0,1-1-1V25H6v1a3,3,0,0,0,3,3h2a2.966,2.966,0,0,0,1-.184V29a3,3,0,0,0,3,3h2a3,3,0,0,0,3-3V23h1.043l-.014,3.991a1,1,0,0,0,.2.6l2.787,3.743L24,34.936,21.009,56.865a1,1,0,0,0,.856,1.126A1.047,1.047,0,0,0,22,58a1,1,0,0,0,.99-.865l3-21.994A.976.976,0,0,0,26,35.009l.014-4a1,1,0,0,0-.2-.6L23.03,26.665,23.043,23H24a1,1,0,0,0,2,0V15a1,1,0,0,1,2,0,1,1,0,0,0,2,0,1,1,0,0,1,2,0,1,1,0,0,0,2,0,1,1,0,0,1,2,0,1,1,0,0,0,2,0,1,1,0,0,1,2,0V26.667L37.2,30.4a1,1,0,0,0-.2.6v4a.978.978,0,0,0,.017.179l4,22a1,1,0,1,0,1.966-.358L39,34.91V31.333L41.8,27.6A1,1,0,0,0,42,27V23h2v6a3,3,0,0,0,3,3h2a3,3,0,0,0,3-3v-.184A2.966,2.966,0,0,0,53,29h2a3,3,0,0,0,3-3V22h1a3,3,0,0,0,0-6ZM5,20a1,1,0,0,1,0-2H6v2Zm13,9a1,1,0,0,1-1,1H15a1,1,0,0,1-1-1V9a1,1,0,0,1,1-1h2a1,1,0,0,1,1,1V29Zm4.077-8c-.009,0-.017,0-.026,0h0c-.01,0-.017,0-.027,0H20V17h4v4ZM42,21V17h2v4Zm8,8a1,1,0,0,1-1,1H47a1,1,0,0,1-1-1V9a1,1,0,0,1,1-1h2a1,1,0,0,1,1,1V29Zm9-9H58V18h1a1,1,0,0,1,0,2Z" id="id_101" style="fill: rgb(255, 242, 0);"></path></g></svg>