<svg width="64" height="64" viewBox="0 0 64 64" fill="none" xmlns="http://www.w3.org/2000/svg">
<path d="M51.87 35C49.2005 26.7589 48.4347 18.0198 49.63 9.44001L50.63 4.19001C50.6584 4.04375 50.6537 3.89301 50.6163 3.7488C50.5789 3.60459 50.5097 3.47056 50.4139 3.3565C50.318 3.24245 50.1979 3.15125 50.0623 3.08957C49.9267 3.02789 49.779 2.9973 49.63 3.00001H14.31C14.1611 2.9973 14.0134 3.02789 13.8778 3.08957C13.7422 3.15125 13.6221 3.24245 13.5262 3.3565C13.4304 3.47056 13.3612 3.60459 13.3238 3.7488C13.2864 3.89301 13.2817 4.04375 13.31 4.19001L14.31 9.38001C15.5325 17.9749 14.7871 26.7352 12.13 35C9.77665 42.1986 8.84272 49.7856 9.38004 57.34L9.57004 60.07C9.58778 60.3229 9.70092 60.5596 9.88657 60.7323C10.0722 60.9049 10.3165 61.0006 10.57 61H27.3C27.5653 61 27.8196 60.8947 28.0071 60.7071C28.1947 60.5196 28.3 60.2652 28.3 60V53.08C30.681 53.9996 33.3191 53.9996 35.7 53.08V60C35.7 60.2652 35.8054 60.5196 35.9929 60.7071C36.1805 60.8947 36.4348 61 36.7 61H53.44C53.6936 61.0006 53.9379 60.9049 54.1235 60.7323C54.3092 60.5596 54.4223 60.3229 54.44 60.07L54.63 57.34C55.1641 49.7849 54.2268 42.198 51.87 35V35ZM16.33 9.05001L15.53 5.00001H48.47L47.66 9.10001C46.63 16.5144 47.01 24.0567 48.78 31.33C37.8797 34.9097 26.1203 34.9097 15.22 31.33C16.9928 24.04 17.3694 16.4802 16.33 9.05001V9.05001ZM52.63 57.2L52.5 59H37.7V52C38.2772 51.6198 38.8134 51.1808 39.3 50.69C39.4047 50.6004 39.4897 50.4901 39.5498 50.366C39.6098 50.2419 39.6435 50.1068 39.6488 49.9691C39.6542 49.8314 39.6309 49.694 39.5807 49.5657C39.5304 49.4374 39.4541 49.3208 39.3567 49.2234C39.2592 49.1259 39.1427 49.0497 39.0144 48.9994C38.886 48.9491 38.7487 48.9259 38.611 48.9312C38.4733 48.9365 38.3381 48.9703 38.2141 49.0303C38.09 49.0903 37.9797 49.1753 37.89 49.28C36.3279 50.8421 34.2092 51.7196 32 51.7196C29.7909 51.7196 27.6722 50.8421 26.11 49.28C26.0204 49.1753 25.9101 49.0903 25.786 49.0303C25.6619 48.9703 25.5268 48.9365 25.3891 48.9312C25.2514 48.9259 25.114 48.9491 24.9857 48.9994C24.8574 49.0497 24.7408 49.1259 24.6434 49.2234C24.5459 49.3208 24.4697 49.4374 24.4194 49.5657C24.3691 49.694 24.3459 49.8314 24.3512 49.9691C24.3566 50.1068 24.3903 50.2419 24.4503 50.366C24.5103 50.4901 24.5954 50.6004 24.7 50.69C25.1867 51.1808 25.7229 51.6198 26.3 52V59H11.5L11.37 57.2C10.8433 49.9043 11.7364 42.5757 14 35.62C14.25 34.84 14.47 34.06 14.69 33.27C20.2793 35.0898 26.122 36.0113 32 36C37.8691 36.0016 43.7014 35.0735 49.28 33.25C49.5 34.04 49.72 34.82 49.97 35.6C52.2464 42.56 53.1497 49.8957 52.63 57.2V57.2Z" fill="#fff200" id="id_101"></path>
<path d="M22.2201 25.66H24.9101C25.5042 25.66 26.0739 25.896 26.494 26.3161C26.9141 26.7362 27.1501 27.3059 27.1501 27.9C27.1501 28.1652 27.2555 28.4196 27.443 28.6071C27.6305 28.7946 27.8849 28.9 28.1501 28.9C28.4153 28.9 28.6697 28.7946 28.8572 28.6071C29.0447 28.4196 29.1501 28.1652 29.1501 27.9C29.1501 26.7755 28.7034 25.697 27.9082 24.9019C27.1131 24.1067 26.0346 23.66 24.9101 23.66H22.2201C21.9549 23.66 21.7005 23.7654 21.513 23.9529C21.3255 24.1404 21.2201 24.3948 21.2201 24.66C21.2201 24.9252 21.3255 25.1796 21.513 25.3671C21.7005 25.5546 21.9549 25.66 22.2201 25.66V25.66Z" fill="#fff200" id="id_102"></path>
<path d="M22.2201 18.9H24.9101C25.5042 18.9 26.0739 19.136 26.494 19.5561C26.9141 19.9762 27.1501 20.5459 27.1501 21.14C27.1501 21.4052 27.2555 21.6596 27.443 21.8471C27.6305 22.0347 27.8849 22.14 28.1501 22.14C28.4153 22.14 28.6697 22.0347 28.8572 21.8471C29.0447 21.6596 29.1501 21.4052 29.1501 21.14C29.1501 20.0155 28.7034 18.937 27.9082 18.1419C27.1131 17.3467 26.0346 16.9 24.9101 16.9H22.2201C21.9549 16.9 21.7005 17.0054 21.513 17.1929C21.3255 17.3805 21.2201 17.6348 21.2201 17.9C21.2201 18.1652 21.3255 18.4196 21.513 18.6071C21.7005 18.7947 21.9549 18.9 22.2201 18.9Z" fill="#fff200" id="id_103"></path>
<path d="M22.2201 12.14H24.9101C25.5042 12.14 26.0739 12.376 26.494 12.7961C26.9141 13.2162 27.1501 13.7859 27.1501 14.38C27.1501 14.6452 27.2555 14.8996 27.443 15.0871C27.6305 15.2747 27.8849 15.38 28.1501 15.38C28.4153 15.38 28.6697 15.2747 28.8572 15.0871C29.0447 14.8996 29.1501 14.6452 29.1501 14.38C29.1501 13.2555 28.7034 12.177 27.9082 11.3819C27.1131 10.5867 26.0346 10.14 24.9101 10.14H22.2201C21.9549 10.14 21.7005 10.2454 21.513 10.4329C21.3255 10.6204 21.2201 10.8748 21.2201 11.14C21.2201 11.4052 21.3255 11.6596 21.513 11.8471C21.7005 12.0347 21.9549 12.14 22.2201 12.14Z" fill="#fff200" id="id_104"></path>
<path d="M35.63 28.9C35.8952 28.9 36.1496 28.7946 36.3371 28.6071C36.5246 28.4196 36.63 28.1652 36.63 27.9C36.63 27.3059 36.866 26.7362 37.2861 26.3161C37.7062 25.896 38.2759 25.66 38.87 25.66H41.56C41.8252 25.66 42.0796 25.5546 42.2671 25.3671C42.4546 25.1796 42.56 24.9252 42.56 24.66C42.56 24.3948 42.4546 24.1404 42.2671 23.9529C42.0796 23.7654 41.8252 23.66 41.56 23.66H38.87C37.7455 23.66 36.667 24.1067 35.8719 24.9019C35.0767 25.697 34.63 26.7755 34.63 27.9C34.63 28.0313 34.6559 28.1614 34.7061 28.2827C34.7564 28.404 34.83 28.5143 34.9229 28.6071C35.0158 28.7 35.126 28.7736 35.2473 28.8239C35.3686 28.8741 35.4987 28.9 35.63 28.9Z" fill="#fff200" id="id_105"></path>
<path d="M35.63 22.14C35.8952 22.14 36.1496 22.0347 36.3371 21.8471C36.5246 21.6596 36.63 21.4052 36.63 21.14C36.63 20.5459 36.866 19.9762 37.2861 19.5561C37.7062 19.136 38.2759 18.9 38.87 18.9H41.56C41.8252 18.9 42.0796 18.7947 42.2671 18.6071C42.4546 18.4196 42.56 18.1652 42.56 17.9C42.56 17.6348 42.4546 17.3805 42.2671 17.1929C42.0796 17.0054 41.8252 16.9 41.56 16.9H38.87C37.7455 16.9 36.667 17.3467 35.8719 18.1419C35.0767 18.937 34.63 20.0155 34.63 21.14C34.63 21.2713 34.6559 21.4014 34.7061 21.5227C34.7564 21.644 34.83 21.7543 34.9229 21.8471C35.0158 21.94 35.126 22.0136 35.2473 22.0639C35.3686 22.1142 35.4987 22.14 35.63 22.14Z" fill="#fff200" id="id_106"></path>
<path d="M35.63 15.38C35.8952 15.38 36.1496 15.2747 36.3371 15.0871C36.5246 14.8996 36.63 14.6452 36.63 14.38C36.63 13.7859 36.866 13.2162 37.2861 12.7961C37.7062 12.376 38.2759 12.14 38.87 12.14H41.56C41.8252 12.14 42.0796 12.0347 42.2671 11.8471C42.4546 11.6596 42.56 11.4052 42.56 11.14C42.56 10.8748 42.4546 10.6204 42.2671 10.4329C42.0796 10.2454 41.8252 10.14 41.56 10.14H38.87C37.7455 10.14 36.667 10.5867 35.8719 11.3819C35.0767 12.177 34.63 13.2555 34.63 14.38C34.63 14.5113 34.6559 14.6414 34.7061 14.7627C34.7564 14.884 34.83 14.9943 34.9229 15.0871C35.0158 15.18 35.126 15.2536 35.2473 15.3039C35.3686 15.3541 35.4987 15.38 35.63 15.38Z" fill="#fff200" id="id_107"></path>
</svg>